<mxfile host="app.diagrams.net" modified="2023-07-24T15:23:16.098Z" agent="Mozilla/5.0 (Macintosh; Intel Mac OS X 10.15; rv:109.0) Gecko/20100101 Firefox/115.0" version="21.6.5" etag="cPmoDFBYl27msrGl7RsL" type="github">
  <diagram name="Page-1" id="hbQ2Q6Ffe-kLS1TuovVa">
    <mxGraphModel>
      <root>
        <mxCell id="0" />
        <mxCell id="1" parent="0" />
      </root>
    </mxGraphModel>
  </diagram>
</mxfile>
